<svg width="80" height="80" viewBox="0 0 80 80" fill="none" xmlns="http://www.w3.org/2000/svg">
<g filter="url(#filter0_d)">
<circle cx="40" cy="40" r="30" fill="#03275A"/>
</g>
<path d="M51.25 37.5C51.25 46.25 40 53.75 40 53.75C40 53.75 28.75 46.25 28.75 37.5C28.75 34.5163 29.9353 31.6548 32.045 29.545C34.1548 27.4353 37.0163 26.25 40 26.25C42.9837 26.25 45.8452 27.4353 47.955 29.545C50.0647 31.6548 51.25 34.5163 51.25 37.5Z" stroke="white" stroke-width="2" stroke-linecap="round" stroke-linejoin="round"/>
<path d="M40 41.25C42.0711 41.25 43.75 39.5711 43.75 37.5C43.75 35.4289 42.0711 33.75 40 33.75C37.9289 33.75 36.25 35.4289 36.25 37.5C36.25 39.5711 37.9289 41.25 40 41.25Z" stroke="white" stroke-width="2" stroke-linecap="round" stroke-linejoin="round"/>
<defs>
<filter id="filter0_d" x="0" y="0" width="80" height="80" filterUnits="userSpaceOnUse" color-interpolation-filters="sRGB">
<feFlood flood-opacity="0" result="BackgroundImageFix"/>
<feColorMatrix in="SourceAlpha" type="matrix" values="0 0 0 0 0 0 0 0 0 0 0 0 0 0 0 0 0 0 127 0"/>
<feOffset/>
<feGaussianBlur stdDeviation="5"/>
<feColorMatrix type="matrix" values="0 0 0 0 0.273229 0 0 0 0 0.475686 0 0 0 0 0.7625 0 0 0 0.41 0"/>
<feBlend mode="normal" in2="BackgroundImageFix" result="effect1_dropShadow"/>
<feBlend mode="normal" in="SourceGraphic" in2="effect1_dropShadow" result="shape"/>
</filter>
</defs>
</svg>
