<svg width="15" height="30" viewBox="0 0 15 30" fill="none" xmlns="http://www.w3.org/2000/svg">
<path d="M2.087 29.2276C1.60022 29.2285 1.12848 29.059 0.753666 28.7484C0.542711 28.5735 0.368332 28.3587 0.240516 28.1163C0.112699 27.8739 0.0339568 27.6087 0.0087988 27.3359C-0.0163593 27.063 0.0125616 26.7878 0.0939043 26.5262C0.175247 26.2645 0.307412 26.0214 0.482832 25.8109L9.81616 14.6442L0.816167 3.45675C0.643113 3.24365 0.51388 2.99844 0.435898 2.73524C0.357915 2.47203 0.33272 2.19601 0.36176 1.92303C0.3908 1.65006 0.473501 1.38551 0.605113 1.1446C0.736725 0.903691 0.914653 0.691167 1.12867 0.519244C1.34422 0.329585 1.59665 0.186528 1.87011 0.0990506C2.14358 0.0115735 2.43217 -0.0184342 2.71778 0.0109093C3.00339 0.0402528 3.27985 0.128315 3.52982 0.269569C3.77978 0.410822 3.99785 0.602218 4.17033 0.831745L14.2328 13.3317C14.5392 13.7045 14.7068 14.1721 14.7068 14.6547C14.7068 15.1372 14.5392 15.6048 14.2328 15.9776L3.81617 28.4776C3.60717 28.7297 3.34168 28.929 3.04125 29.0593C2.74081 29.1896 2.41389 29.2473 2.087 29.2276Z" fill="#03275A"/>
</svg>
