<svg width="16" height="30" viewBox="0 0 16 30" fill="none" xmlns="http://www.w3.org/2000/svg">
<path d="M13.6176 29.2276C14.1044 29.2285 14.5761 29.059 14.9509 28.7484C15.1619 28.5735 15.3363 28.3587 15.4641 28.1163C15.5919 27.8739 15.6706 27.6087 15.6958 27.3359C15.7209 27.063 15.692 26.7878 15.6107 26.5262C15.5293 26.2645 15.3972 26.0214 15.2218 25.8109L5.88843 14.6442L14.8884 3.45675C15.0615 3.24365 15.1907 2.99844 15.2687 2.73524C15.3467 2.47203 15.3719 2.19601 15.3428 1.92303C15.3138 1.65006 15.2311 1.38551 15.0995 1.1446C14.9679 0.903691 14.7899 0.691167 14.5759 0.519244C14.3604 0.329585 14.1079 0.186528 13.8345 0.0990506C13.561 0.0115735 13.2724 -0.0184342 12.9868 0.0109093C12.7012 0.0402528 12.4247 0.128315 12.1748 0.269569C11.9248 0.410822 11.7067 0.602218 11.5343 0.831745L1.47176 13.3317C1.16534 13.7045 0.997828 14.1721 0.997828 14.6547C0.997828 15.1372 1.16534 15.6048 1.47176 15.9776L11.8884 28.4776C12.0974 28.7297 12.3629 28.929 12.6633 29.0593C12.9638 29.1896 13.2907 29.2473 13.6176 29.2276Z" fill="#03275A"/>
</svg>
